<svg xmlns="http://www.w3.org/2000/svg" width="1680" height="680" viewBox="0 0 1680 680">
<rect width="100%" height="100%" fill="#0f172a"/>
<g transform="translate(0,0)">
<rect x="6" y="6" width="108" height="158" rx="10" fill="#fffaf0" stroke="#334155" stroke-width="2"/>
<text x="16" y="34" font-size="28" fill="#b91c1c" font-family="Arial Black, Arial, sans-serif">A</text>
<text x="54" y="98" text-anchor="middle" font-size="58" fill="#b91c1c">♥</text>
<text x="96" y="148" text-anchor="end" font-size="28" fill="#b91c1c" font-family="Arial Black, Arial, sans-serif">A</text>
</g>
<g transform="translate(120,0)">
<rect x="6" y="6" width="108" height="158" rx="10" fill="#fffaf0" stroke="#334155" stroke-width="2"/>
<text x="16" y="34" font-size="28" fill="#b91c1c" font-family="Arial Black, Arial, sans-serif">2</text>
<text x="54" y="98" text-anchor="middle" font-size="58" fill="#b91c1c">♥</text>
<text x="96" y="148" text-anchor="end" font-size="28" fill="#b91c1c" font-family="Arial Black, Arial, sans-serif">2</text>
</g>
<g transform="translate(240,0)">
<rect x="6" y="6" width="108" height="158" rx="10" fill="#fffaf0" stroke="#334155" stroke-width="2"/>
<text x="16" y="34" font-size="28" fill="#b91c1c" font-family="Arial Black, Arial, sans-serif">3</text>
<text x="54" y="98" text-anchor="middle" font-size="58" fill="#b91c1c">♥</text>
<text x="96" y="148" text-anchor="end" font-size="28" fill="#b91c1c" font-family="Arial Black, Arial, sans-serif">3</text>
</g>
<g transform="translate(360,0)">
<rect x="6" y="6" width="108" height="158" rx="10" fill="#fffaf0" stroke="#334155" stroke-width="2"/>
<text x="16" y="34" font-size="28" fill="#b91c1c" font-family="Arial Black, Arial, sans-serif">4</text>
<text x="54" y="98" text-anchor="middle" font-size="58" fill="#b91c1c">♥</text>
<text x="96" y="148" text-anchor="end" font-size="28" fill="#b91c1c" font-family="Arial Black, Arial, sans-serif">4</text>
</g>
<g transform="translate(480,0)">
<rect x="6" y="6" width="108" height="158" rx="10" fill="#fffaf0" stroke="#334155" stroke-width="2"/>
<text x="16" y="34" font-size="28" fill="#b91c1c" font-family="Arial Black, Arial, sans-serif">5</text>
<text x="54" y="98" text-anchor="middle" font-size="58" fill="#b91c1c">♥</text>
<text x="96" y="148" text-anchor="end" font-size="28" fill="#b91c1c" font-family="Arial Black, Arial, sans-serif">5</text>
</g>
<g transform="translate(600,0)">
<rect x="6" y="6" width="108" height="158" rx="10" fill="#fffaf0" stroke="#334155" stroke-width="2"/>
<text x="16" y="34" font-size="28" fill="#b91c1c" font-family="Arial Black, Arial, sans-serif">6</text>
<text x="54" y="98" text-anchor="middle" font-size="58" fill="#b91c1c">♥</text>
<text x="96" y="148" text-anchor="end" font-size="28" fill="#b91c1c" font-family="Arial Black, Arial, sans-serif">6</text>
</g>
<g transform="translate(720,0)">
<rect x="6" y="6" width="108" height="158" rx="10" fill="#fffaf0" stroke="#334155" stroke-width="2"/>
<text x="16" y="34" font-size="28" fill="#b91c1c" font-family="Arial Black, Arial, sans-serif">7</text>
<text x="54" y="98" text-anchor="middle" font-size="58" fill="#b91c1c">♥</text>
<text x="96" y="148" text-anchor="end" font-size="28" fill="#b91c1c" font-family="Arial Black, Arial, sans-serif">7</text>
</g>
<g transform="translate(840,0)">
<rect x="6" y="6" width="108" height="158" rx="10" fill="#fffaf0" stroke="#334155" stroke-width="2"/>
<text x="16" y="34" font-size="28" fill="#b91c1c" font-family="Arial Black, Arial, sans-serif">8</text>
<text x="54" y="98" text-anchor="middle" font-size="58" fill="#b91c1c">♥</text>
<text x="96" y="148" text-anchor="end" font-size="28" fill="#b91c1c" font-family="Arial Black, Arial, sans-serif">8</text>
</g>
<g transform="translate(960,0)">
<rect x="6" y="6" width="108" height="158" rx="10" fill="#fffaf0" stroke="#334155" stroke-width="2"/>
<text x="16" y="34" font-size="28" fill="#b91c1c" font-family="Arial Black, Arial, sans-serif">9</text>
<text x="54" y="98" text-anchor="middle" font-size="58" fill="#b91c1c">♥</text>
<text x="96" y="148" text-anchor="end" font-size="28" fill="#b91c1c" font-family="Arial Black, Arial, sans-serif">9</text>
</g>
<g transform="translate(1080,0)">
<rect x="6" y="6" width="108" height="158" rx="10" fill="#fffaf0" stroke="#334155" stroke-width="2"/>
<text x="16" y="34" font-size="28" fill="#b91c1c" font-family="Arial Black, Arial, sans-serif">10</text>
<text x="54" y="98" text-anchor="middle" font-size="58" fill="#b91c1c">♥</text>
<text x="96" y="148" text-anchor="end" font-size="28" fill="#b91c1c" font-family="Arial Black, Arial, sans-serif">10</text>
</g>
<g transform="translate(1200,0)">
<rect x="6" y="6" width="108" height="158" rx="10" fill="#fffaf0" stroke="#334155" stroke-width="2"/>
<text x="16" y="34" font-size="28" fill="#b91c1c" font-family="Arial Black, Arial, sans-serif">J</text>
<text x="54" y="98" text-anchor="middle" font-size="58" fill="#b91c1c">♥</text>
<text x="96" y="148" text-anchor="end" font-size="28" fill="#b91c1c" font-family="Arial Black, Arial, sans-serif">J</text>
</g>
<g transform="translate(1320,0)">
<rect x="6" y="6" width="108" height="158" rx="10" fill="#fffaf0" stroke="#334155" stroke-width="2"/>
<text x="16" y="34" font-size="28" fill="#b91c1c" font-family="Arial Black, Arial, sans-serif">Q</text>
<text x="54" y="98" text-anchor="middle" font-size="58" fill="#b91c1c">♥</text>
<text x="96" y="148" text-anchor="end" font-size="28" fill="#b91c1c" font-family="Arial Black, Arial, sans-serif">Q</text>
</g>
<g transform="translate(1440,0)">
<rect x="6" y="6" width="108" height="158" rx="10" fill="#fffaf0" stroke="#334155" stroke-width="2"/>
<text x="16" y="34" font-size="28" fill="#b91c1c" font-family="Arial Black, Arial, sans-serif">K</text>
<text x="54" y="98" text-anchor="middle" font-size="58" fill="#b91c1c">♥</text>
<text x="96" y="148" text-anchor="end" font-size="28" fill="#b91c1c" font-family="Arial Black, Arial, sans-serif">K</text>
</g>
<g transform="translate(1560,0)">
<rect x="6" y="6" width="108" height="158" rx="10" fill="#fffaf0" stroke="#334155" stroke-width="2"/>
<text x="54" y="58" text-anchor="middle" font-size="24" fill="#7c2d12" font-family="Arial Black, Arial, sans-serif">JOKER</text>
<text x="54" y="100" text-anchor="middle" font-size="36">🐀</text>
<text x="54" y="140" text-anchor="middle" font-size="22" fill="#7c2d12" font-family="Arial, sans-serif">JOKER</text>
</g>
<g transform="translate(0,170)">
<rect x="6" y="6" width="108" height="158" rx="10" fill="#fffaf0" stroke="#334155" stroke-width="2"/>
<text x="16" y="34" font-size="28" fill="#b91c1c" font-family="Arial Black, Arial, sans-serif">A</text>
<text x="54" y="98" text-anchor="middle" font-size="58" fill="#b91c1c">♦</text>
<text x="96" y="148" text-anchor="end" font-size="28" fill="#b91c1c" font-family="Arial Black, Arial, sans-serif">A</text>
</g>
<g transform="translate(120,170)">
<rect x="6" y="6" width="108" height="158" rx="10" fill="#fffaf0" stroke="#334155" stroke-width="2"/>
<text x="16" y="34" font-size="28" fill="#b91c1c" font-family="Arial Black, Arial, sans-serif">2</text>
<text x="54" y="98" text-anchor="middle" font-size="58" fill="#b91c1c">♦</text>
<text x="96" y="148" text-anchor="end" font-size="28" fill="#b91c1c" font-family="Arial Black, Arial, sans-serif">2</text>
</g>
<g transform="translate(240,170)">
<rect x="6" y="6" width="108" height="158" rx="10" fill="#fffaf0" stroke="#334155" stroke-width="2"/>
<text x="16" y="34" font-size="28" fill="#b91c1c" font-family="Arial Black, Arial, sans-serif">3</text>
<text x="54" y="98" text-anchor="middle" font-size="58" fill="#b91c1c">♦</text>
<text x="96" y="148" text-anchor="end" font-size="28" fill="#b91c1c" font-family="Arial Black, Arial, sans-serif">3</text>
</g>
<g transform="translate(360,170)">
<rect x="6" y="6" width="108" height="158" rx="10" fill="#fffaf0" stroke="#334155" stroke-width="2"/>
<text x="16" y="34" font-size="28" fill="#b91c1c" font-family="Arial Black, Arial, sans-serif">4</text>
<text x="54" y="98" text-anchor="middle" font-size="58" fill="#b91c1c">♦</text>
<text x="96" y="148" text-anchor="end" font-size="28" fill="#b91c1c" font-family="Arial Black, Arial, sans-serif">4</text>
</g>
<g transform="translate(480,170)">
<rect x="6" y="6" width="108" height="158" rx="10" fill="#fffaf0" stroke="#334155" stroke-width="2"/>
<text x="16" y="34" font-size="28" fill="#b91c1c" font-family="Arial Black, Arial, sans-serif">5</text>
<text x="54" y="98" text-anchor="middle" font-size="58" fill="#b91c1c">♦</text>
<text x="96" y="148" text-anchor="end" font-size="28" fill="#b91c1c" font-family="Arial Black, Arial, sans-serif">5</text>
</g>
<g transform="translate(600,170)">
<rect x="6" y="6" width="108" height="158" rx="10" fill="#fffaf0" stroke="#334155" stroke-width="2"/>
<text x="16" y="34" font-size="28" fill="#b91c1c" font-family="Arial Black, Arial, sans-serif">6</text>
<text x="54" y="98" text-anchor="middle" font-size="58" fill="#b91c1c">♦</text>
<text x="96" y="148" text-anchor="end" font-size="28" fill="#b91c1c" font-family="Arial Black, Arial, sans-serif">6</text>
</g>
<g transform="translate(720,170)">
<rect x="6" y="6" width="108" height="158" rx="10" fill="#fffaf0" stroke="#334155" stroke-width="2"/>
<text x="16" y="34" font-size="28" fill="#b91c1c" font-family="Arial Black, Arial, sans-serif">7</text>
<text x="54" y="98" text-anchor="middle" font-size="58" fill="#b91c1c">♦</text>
<text x="96" y="148" text-anchor="end" font-size="28" fill="#b91c1c" font-family="Arial Black, Arial, sans-serif">7</text>
</g>
<g transform="translate(840,170)">
<rect x="6" y="6" width="108" height="158" rx="10" fill="#fffaf0" stroke="#334155" stroke-width="2"/>
<text x="16" y="34" font-size="28" fill="#b91c1c" font-family="Arial Black, Arial, sans-serif">8</text>
<text x="54" y="98" text-anchor="middle" font-size="58" fill="#b91c1c">♦</text>
<text x="96" y="148" text-anchor="end" font-size="28" fill="#b91c1c" font-family="Arial Black, Arial, sans-serif">8</text>
</g>
<g transform="translate(960,170)">
<rect x="6" y="6" width="108" height="158" rx="10" fill="#fffaf0" stroke="#334155" stroke-width="2"/>
<text x="16" y="34" font-size="28" fill="#b91c1c" font-family="Arial Black, Arial, sans-serif">9</text>
<text x="54" y="98" text-anchor="middle" font-size="58" fill="#b91c1c">♦</text>
<text x="96" y="148" text-anchor="end" font-size="28" fill="#b91c1c" font-family="Arial Black, Arial, sans-serif">9</text>
</g>
<g transform="translate(1080,170)">
<rect x="6" y="6" width="108" height="158" rx="10" fill="#fffaf0" stroke="#334155" stroke-width="2"/>
<text x="16" y="34" font-size="28" fill="#b91c1c" font-family="Arial Black, Arial, sans-serif">10</text>
<text x="54" y="98" text-anchor="middle" font-size="58" fill="#b91c1c">♦</text>
<text x="96" y="148" text-anchor="end" font-size="28" fill="#b91c1c" font-family="Arial Black, Arial, sans-serif">10</text>
</g>
<g transform="translate(1200,170)">
<rect x="6" y="6" width="108" height="158" rx="10" fill="#fffaf0" stroke="#334155" stroke-width="2"/>
<text x="16" y="34" font-size="28" fill="#b91c1c" font-family="Arial Black, Arial, sans-serif">J</text>
<text x="54" y="98" text-anchor="middle" font-size="58" fill="#b91c1c">♦</text>
<text x="96" y="148" text-anchor="end" font-size="28" fill="#b91c1c" font-family="Arial Black, Arial, sans-serif">J</text>
</g>
<g transform="translate(1320,170)">
<rect x="6" y="6" width="108" height="158" rx="10" fill="#fffaf0" stroke="#334155" stroke-width="2"/>
<text x="16" y="34" font-size="28" fill="#b91c1c" font-family="Arial Black, Arial, sans-serif">Q</text>
<text x="54" y="98" text-anchor="middle" font-size="58" fill="#b91c1c">♦</text>
<text x="96" y="148" text-anchor="end" font-size="28" fill="#b91c1c" font-family="Arial Black, Arial, sans-serif">Q</text>
</g>
<g transform="translate(1440,170)">
<rect x="6" y="6" width="108" height="158" rx="10" fill="#fffaf0" stroke="#334155" stroke-width="2"/>
<text x="16" y="34" font-size="28" fill="#b91c1c" font-family="Arial Black, Arial, sans-serif">K</text>
<text x="54" y="98" text-anchor="middle" font-size="58" fill="#b91c1c">♦</text>
<text x="96" y="148" text-anchor="end" font-size="28" fill="#b91c1c" font-family="Arial Black, Arial, sans-serif">K</text>
</g>
<g transform="translate(1560,170)">
<rect x="6" y="6" width="108" height="158" rx="10" fill="#fffaf0" stroke="#334155" stroke-width="2"/>
<text x="54" y="58" text-anchor="middle" font-size="24" fill="#7c2d12" font-family="Arial Black, Arial, sans-serif">JOKER</text>
<text x="54" y="100" text-anchor="middle" font-size="36">🐀</text>
<text x="54" y="140" text-anchor="middle" font-size="22" fill="#7c2d12" font-family="Arial, sans-serif">JOKER</text>
</g>
<g transform="translate(0,340)">
<rect x="6" y="6" width="108" height="158" rx="10" fill="#fffaf0" stroke="#334155" stroke-width="2"/>
<text x="16" y="34" font-size="28" fill="#111827" font-family="Arial Black, Arial, sans-serif">A</text>
<text x="54" y="98" text-anchor="middle" font-size="58" fill="#111827">♣</text>
<text x="96" y="148" text-anchor="end" font-size="28" fill="#111827" font-family="Arial Black, Arial, sans-serif">A</text>
</g>
<g transform="translate(120,340)">
<rect x="6" y="6" width="108" height="158" rx="10" fill="#fffaf0" stroke="#334155" stroke-width="2"/>
<text x="16" y="34" font-size="28" fill="#111827" font-family="Arial Black, Arial, sans-serif">2</text>
<text x="54" y="98" text-anchor="middle" font-size="58" fill="#111827">♣</text>
<text x="96" y="148" text-anchor="end" font-size="28" fill="#111827" font-family="Arial Black, Arial, sans-serif">2</text>
</g>
<g transform="translate(240,340)">
<rect x="6" y="6" width="108" height="158" rx="10" fill="#fffaf0" stroke="#334155" stroke-width="2"/>
<text x="16" y="34" font-size="28" fill="#111827" font-family="Arial Black, Arial, sans-serif">3</text>
<text x="54" y="98" text-anchor="middle" font-size="58" fill="#111827">♣</text>
<text x="96" y="148" text-anchor="end" font-size="28" fill="#111827" font-family="Arial Black, Arial, sans-serif">3</text>
</g>
<g transform="translate(360,340)">
<rect x="6" y="6" width="108" height="158" rx="10" fill="#fffaf0" stroke="#334155" stroke-width="2"/>
<text x="16" y="34" font-size="28" fill="#111827" font-family="Arial Black, Arial, sans-serif">4</text>
<text x="54" y="98" text-anchor="middle" font-size="58" fill="#111827">♣</text>
<text x="96" y="148" text-anchor="end" font-size="28" fill="#111827" font-family="Arial Black, Arial, sans-serif">4</text>
</g>
<g transform="translate(480,340)">
<rect x="6" y="6" width="108" height="158" rx="10" fill="#fffaf0" stroke="#334155" stroke-width="2"/>
<text x="16" y="34" font-size="28" fill="#111827" font-family="Arial Black, Arial, sans-serif">5</text>
<text x="54" y="98" text-anchor="middle" font-size="58" fill="#111827">♣</text>
<text x="96" y="148" text-anchor="end" font-size="28" fill="#111827" font-family="Arial Black, Arial, sans-serif">5</text>
</g>
<g transform="translate(600,340)">
<rect x="6" y="6" width="108" height="158" rx="10" fill="#fffaf0" stroke="#334155" stroke-width="2"/>
<text x="16" y="34" font-size="28" fill="#111827" font-family="Arial Black, Arial, sans-serif">6</text>
<text x="54" y="98" text-anchor="middle" font-size="58" fill="#111827">♣</text>
<text x="96" y="148" text-anchor="end" font-size="28" fill="#111827" font-family="Arial Black, Arial, sans-serif">6</text>
</g>
<g transform="translate(720,340)">
<rect x="6" y="6" width="108" height="158" rx="10" fill="#fffaf0" stroke="#334155" stroke-width="2"/>
<text x="16" y="34" font-size="28" fill="#111827" font-family="Arial Black, Arial, sans-serif">7</text>
<text x="54" y="98" text-anchor="middle" font-size="58" fill="#111827">♣</text>
<text x="96" y="148" text-anchor="end" font-size="28" fill="#111827" font-family="Arial Black, Arial, sans-serif">7</text>
</g>
<g transform="translate(840,340)">
<rect x="6" y="6" width="108" height="158" rx="10" fill="#fffaf0" stroke="#334155" stroke-width="2"/>
<text x="16" y="34" font-size="28" fill="#111827" font-family="Arial Black, Arial, sans-serif">8</text>
<text x="54" y="98" text-anchor="middle" font-size="58" fill="#111827">♣</text>
<text x="96" y="148" text-anchor="end" font-size="28" fill="#111827" font-family="Arial Black, Arial, sans-serif">8</text>
</g>
<g transform="translate(960,340)">
<rect x="6" y="6" width="108" height="158" rx="10" fill="#fffaf0" stroke="#334155" stroke-width="2"/>
<text x="16" y="34" font-size="28" fill="#111827" font-family="Arial Black, Arial, sans-serif">9</text>
<text x="54" y="98" text-anchor="middle" font-size="58" fill="#111827">♣</text>
<text x="96" y="148" text-anchor="end" font-size="28" fill="#111827" font-family="Arial Black, Arial, sans-serif">9</text>
</g>
<g transform="translate(1080,340)">
<rect x="6" y="6" width="108" height="158" rx="10" fill="#fffaf0" stroke="#334155" stroke-width="2"/>
<text x="16" y="34" font-size="28" fill="#111827" font-family="Arial Black, Arial, sans-serif">10</text>
<text x="54" y="98" text-anchor="middle" font-size="58" fill="#111827">♣</text>
<text x="96" y="148" text-anchor="end" font-size="28" fill="#111827" font-family="Arial Black, Arial, sans-serif">10</text>
</g>
<g transform="translate(1200,340)">
<rect x="6" y="6" width="108" height="158" rx="10" fill="#fffaf0" stroke="#334155" stroke-width="2"/>
<text x="16" y="34" font-size="28" fill="#111827" font-family="Arial Black, Arial, sans-serif">J</text>
<text x="54" y="98" text-anchor="middle" font-size="58" fill="#111827">♣</text>
<text x="96" y="148" text-anchor="end" font-size="28" fill="#111827" font-family="Arial Black, Arial, sans-serif">J</text>
</g>
<g transform="translate(1320,340)">
<rect x="6" y="6" width="108" height="158" rx="10" fill="#fffaf0" stroke="#334155" stroke-width="2"/>
<text x="16" y="34" font-size="28" fill="#111827" font-family="Arial Black, Arial, sans-serif">Q</text>
<text x="54" y="98" text-anchor="middle" font-size="58" fill="#111827">♣</text>
<text x="96" y="148" text-anchor="end" font-size="28" fill="#111827" font-family="Arial Black, Arial, sans-serif">Q</text>
</g>
<g transform="translate(1440,340)">
<rect x="6" y="6" width="108" height="158" rx="10" fill="#fffaf0" stroke="#334155" stroke-width="2"/>
<text x="16" y="34" font-size="28" fill="#111827" font-family="Arial Black, Arial, sans-serif">K</text>
<text x="54" y="98" text-anchor="middle" font-size="58" fill="#111827">♣</text>
<text x="96" y="148" text-anchor="end" font-size="28" fill="#111827" font-family="Arial Black, Arial, sans-serif">K</text>
</g>
<g transform="translate(1560,340)">
<rect x="6" y="6" width="108" height="158" rx="10" fill="#fffaf0" stroke="#334155" stroke-width="2"/>
<text x="54" y="58" text-anchor="middle" font-size="24" fill="#7c2d12" font-family="Arial Black, Arial, sans-serif">JOKER</text>
<text x="54" y="100" text-anchor="middle" font-size="36">🐀</text>
<text x="54" y="140" text-anchor="middle" font-size="22" fill="#7c2d12" font-family="Arial, sans-serif">JOKER</text>
</g>
<g transform="translate(0,510)">
<rect x="6" y="6" width="108" height="158" rx="10" fill="#fffaf0" stroke="#334155" stroke-width="2"/>
<text x="16" y="34" font-size="28" fill="#111827" font-family="Arial Black, Arial, sans-serif">A</text>
<text x="54" y="98" text-anchor="middle" font-size="58" fill="#111827">♠</text>
<text x="96" y="148" text-anchor="end" font-size="28" fill="#111827" font-family="Arial Black, Arial, sans-serif">A</text>
</g>
<g transform="translate(120,510)">
<rect x="6" y="6" width="108" height="158" rx="10" fill="#fffaf0" stroke="#334155" stroke-width="2"/>
<text x="16" y="34" font-size="28" fill="#111827" font-family="Arial Black, Arial, sans-serif">2</text>
<text x="54" y="98" text-anchor="middle" font-size="58" fill="#111827">♠</text>
<text x="96" y="148" text-anchor="end" font-size="28" fill="#111827" font-family="Arial Black, Arial, sans-serif">2</text>
</g>
<g transform="translate(240,510)">
<rect x="6" y="6" width="108" height="158" rx="10" fill="#fffaf0" stroke="#334155" stroke-width="2"/>
<text x="16" y="34" font-size="28" fill="#111827" font-family="Arial Black, Arial, sans-serif">3</text>
<text x="54" y="98" text-anchor="middle" font-size="58" fill="#111827">♠</text>
<text x="96" y="148" text-anchor="end" font-size="28" fill="#111827" font-family="Arial Black, Arial, sans-serif">3</text>
</g>
<g transform="translate(360,510)">
<rect x="6" y="6" width="108" height="158" rx="10" fill="#fffaf0" stroke="#334155" stroke-width="2"/>
<text x="16" y="34" font-size="28" fill="#111827" font-family="Arial Black, Arial, sans-serif">4</text>
<text x="54" y="98" text-anchor="middle" font-size="58" fill="#111827">♠</text>
<text x="96" y="148" text-anchor="end" font-size="28" fill="#111827" font-family="Arial Black, Arial, sans-serif">4</text>
</g>
<g transform="translate(480,510)">
<rect x="6" y="6" width="108" height="158" rx="10" fill="#fffaf0" stroke="#334155" stroke-width="2"/>
<text x="16" y="34" font-size="28" fill="#111827" font-family="Arial Black, Arial, sans-serif">5</text>
<text x="54" y="98" text-anchor="middle" font-size="58" fill="#111827">♠</text>
<text x="96" y="148" text-anchor="end" font-size="28" fill="#111827" font-family="Arial Black, Arial, sans-serif">5</text>
</g>
<g transform="translate(600,510)">
<rect x="6" y="6" width="108" height="158" rx="10" fill="#fffaf0" stroke="#334155" stroke-width="2"/>
<text x="16" y="34" font-size="28" fill="#111827" font-family="Arial Black, Arial, sans-serif">6</text>
<text x="54" y="98" text-anchor="middle" font-size="58" fill="#111827">♠</text>
<text x="96" y="148" text-anchor="end" font-size="28" fill="#111827" font-family="Arial Black, Arial, sans-serif">6</text>
</g>
<g transform="translate(720,510)">
<rect x="6" y="6" width="108" height="158" rx="10" fill="#fffaf0" stroke="#334155" stroke-width="2"/>
<text x="16" y="34" font-size="28" fill="#111827" font-family="Arial Black, Arial, sans-serif">7</text>
<text x="54" y="98" text-anchor="middle" font-size="58" fill="#111827">♠</text>
<text x="96" y="148" text-anchor="end" font-size="28" fill="#111827" font-family="Arial Black, Arial, sans-serif">7</text>
</g>
<g transform="translate(840,510)">
<rect x="6" y="6" width="108" height="158" rx="10" fill="#fffaf0" stroke="#334155" stroke-width="2"/>
<text x="16" y="34" font-size="28" fill="#111827" font-family="Arial Black, Arial, sans-serif">8</text>
<text x="54" y="98" text-anchor="middle" font-size="58" fill="#111827">♠</text>
<text x="96" y="148" text-anchor="end" font-size="28" fill="#111827" font-family="Arial Black, Arial, sans-serif">8</text>
</g>
<g transform="translate(960,510)">
<rect x="6" y="6" width="108" height="158" rx="10" fill="#fffaf0" stroke="#334155" stroke-width="2"/>
<text x="16" y="34" font-size="28" fill="#111827" font-family="Arial Black, Arial, sans-serif">9</text>
<text x="54" y="98" text-anchor="middle" font-size="58" fill="#111827">♠</text>
<text x="96" y="148" text-anchor="end" font-size="28" fill="#111827" font-family="Arial Black, Arial, sans-serif">9</text>
</g>
<g transform="translate(1080,510)">
<rect x="6" y="6" width="108" height="158" rx="10" fill="#fffaf0" stroke="#334155" stroke-width="2"/>
<text x="16" y="34" font-size="28" fill="#111827" font-family="Arial Black, Arial, sans-serif">10</text>
<text x="54" y="98" text-anchor="middle" font-size="58" fill="#111827">♠</text>
<text x="96" y="148" text-anchor="end" font-size="28" fill="#111827" font-family="Arial Black, Arial, sans-serif">10</text>
</g>
<g transform="translate(1200,510)">
<rect x="6" y="6" width="108" height="158" rx="10" fill="#fffaf0" stroke="#334155" stroke-width="2"/>
<text x="16" y="34" font-size="28" fill="#111827" font-family="Arial Black, Arial, sans-serif">J</text>
<text x="54" y="98" text-anchor="middle" font-size="58" fill="#111827">♠</text>
<text x="96" y="148" text-anchor="end" font-size="28" fill="#111827" font-family="Arial Black, Arial, sans-serif">J</text>
</g>
<g transform="translate(1320,510)">
<rect x="6" y="6" width="108" height="158" rx="10" fill="#fffaf0" stroke="#334155" stroke-width="2"/>
<text x="16" y="34" font-size="28" fill="#111827" font-family="Arial Black, Arial, sans-serif">Q</text>
<text x="54" y="98" text-anchor="middle" font-size="58" fill="#111827">♠</text>
<text x="96" y="148" text-anchor="end" font-size="28" fill="#111827" font-family="Arial Black, Arial, sans-serif">Q</text>
</g>
<g transform="translate(1440,510)">
<rect x="6" y="6" width="108" height="158" rx="10" fill="#fffaf0" stroke="#334155" stroke-width="2"/>
<text x="16" y="34" font-size="28" fill="#111827" font-family="Arial Black, Arial, sans-serif">K</text>
<text x="54" y="98" text-anchor="middle" font-size="58" fill="#111827">♠</text>
<text x="96" y="148" text-anchor="end" font-size="28" fill="#111827" font-family="Arial Black, Arial, sans-serif">K</text>
</g>
<g transform="translate(1560,510)">
<rect x="6" y="6" width="108" height="158" rx="10" fill="#fffaf0" stroke="#334155" stroke-width="2"/>
<text x="54" y="58" text-anchor="middle" font-size="24" fill="#7c2d12" font-family="Arial Black, Arial, sans-serif">JOKER</text>
<text x="54" y="100" text-anchor="middle" font-size="36">🐀</text>
<text x="54" y="140" text-anchor="middle" font-size="22" fill="#7c2d12" font-family="Arial, sans-serif">JOKER</text>
</g>
</svg>